<mxfile host="app.diagrams.net" agent="Mozilla/5.0 (Windows NT 10.0; Win64; x64; rv:132.0) Gecko/20100101 Firefox/132.0" version="24.9.0">
  <diagram name="PÃ¡gina-1" id="7n9qcq4cweztiihZqOki">
    <mxGraphModel dx="1674" dy="746" grid="1" gridSize="10" guides="1" tooltips="1" connect="1" arrows="1" fold="1" page="1" pageScale="1" pageWidth="827" pageHeight="1169" math="0" shadow="0">
      <root>
        <mxCell id="0" />
        <mxCell id="1" parent="0" />
        <mxCell id="ik0fF-yZ9_700ZOFON-I-1" value="Menu Medicos" style="strokeWidth=1;shadow=0;dashed=0;align=center;html=1;shape=mxgraph.mockup.containers.window;align=left;verticalAlign=top;spacingLeft=8;strokeColor2=#008cff;strokeColor3=#c4c4c4;fontColor=#ffffff;mainText=;fontSize=17;labelBackgroundColor=none;whiteSpace=wrap;fillColor=#1ba1e2;strokeColor=#006EAF;" vertex="1" parent="1">
          <mxGeometry x="60" y="190" width="1020" height="760" as="geometry" />
        </mxCell>
        <mxCell id="ik0fF-yZ9_700ZOFON-I-2" value="Ver Horas Agendadas" style="strokeWidth=1;shadow=0;dashed=0;align=center;html=1;shape=mxgraph.mockup.buttons.button;mainText=;buttonStyle=round;fontSize=17;fontStyle=1;whiteSpace=wrap;" vertex="1" parent="1">
          <mxGeometry x="220" y="410" width="220" height="90" as="geometry" />
        </mxCell>
        <mxCell id="ik0fF-yZ9_700ZOFON-I-4" value="Manejar Fichas Medicas" style="strokeWidth=1;shadow=0;dashed=0;align=center;html=1;shape=mxgraph.mockup.buttons.button;mainText=;buttonStyle=round;fontSize=17;fontStyle=1;whiteSpace=wrap;" vertex="1" parent="1">
          <mxGeometry x="460" y="680" width="220" height="90" as="geometry" />
        </mxCell>
        <mxCell id="ik0fF-yZ9_700ZOFON-I-5" value="Manejar Inventario Medicamentos" style="strokeWidth=1;shadow=0;dashed=0;align=center;html=1;shape=mxgraph.mockup.buttons.button;mainText=;buttonStyle=round;fontSize=17;fontStyle=1;whiteSpace=wrap;" vertex="1" parent="1">
          <mxGeometry x="700" y="410" width="220" height="90" as="geometry" />
        </mxCell>
        <mxCell id="ik0fF-yZ9_700ZOFON-I-6" value="Cerrar Sesion" style="strokeWidth=1;shadow=0;dashed=0;align=center;html=1;shape=mxgraph.mockup.buttons.button;mainText=;buttonStyle=round;fontSize=17;fontStyle=1;whiteSpace=wrap;" vertex="1" parent="1">
          <mxGeometry x="70" y="230" width="170" height="50" as="geometry" />
        </mxCell>
      </root>
    </mxGraphModel>
  </diagram>
</mxfile>
